<?xml version="1.0" encoding="iso-8859-1"?>
<!-- Generator: Adobe Illustrator 16.0.0, SVG Export Plug-In . SVG Version: 6.00 Build 0)  -->
<!DOCTYPE svg PUBLIC "-//W3C//DTD SVG 1.1//EN" "http://www.w3.org/Graphics/SVG/1.1/DTD/svg11.dtd">
<svg xmlns="http://www.w3.org/2000/svg" xmlns:xlink="http://www.w3.org/1999/xlink" version="1.1" id="Capa_1" x="0px" y="0px" width="512px" height="512px" viewBox="0 0 492.402 492.402" style="enable-background:new 0 0 492.402 492.402;" xml:space="preserve">
<g>
	<path d="M410.456,159.384c-39.472,0-72.396,28.41-79.512,65.852H161.461c-1.427-7.53-3.928-14.67-7.294-21.311l89.888-63.771   c14.469,13.485,33.809,21.813,55.1,21.813c44.65,0,80.978-36.328,80.978-80.983S343.806,0,299.156,0   c-44.646,0-80.975,36.321-80.975,80.978c0,12.463,2.911,24.222,7.953,34.773l-90.461,64.188   c-14.316-12.735-33.103-20.555-53.723-20.555c-44.65,0-80.98,36.328-80.98,80.983c0,44.656,36.331,80.983,80.98,80.983   c18.876,0,36.225-6.543,50.011-17.419l92.994,75.161c-4.335,9.918-6.774,20.829-6.774,32.32c0,44.661,36.328,80.989,80.975,80.989   c44.65,0,80.978-36.328,80.978-80.989c0-44.656-36.327-80.983-80.978-80.983c-22.248,0-42.416,9.025-57.071,23.602l-90.246-72.951   c4.563-7.802,7.879-16.408,9.623-25.581h169.482c7.11,37.438,40.027,65.852,79.512,65.852c44.649,0,80.978-36.327,80.978-80.983   C491.433,195.711,455.105,159.384,410.456,159.384z M299.156,30.257c27.97,0,50.715,22.751,50.715,50.721   s-22.745,50.72-50.715,50.72c-27.958,0-50.711-22.75-50.711-50.72S271.198,30.257,299.156,30.257z M81.95,291.088   c-27.97,0-50.717-22.751-50.717-50.721s22.753-50.72,50.717-50.72c27.961,0,50.715,22.75,50.715,50.72   S109.917,291.088,81.95,291.088z M299.156,360.692c27.97,0,50.715,22.751,50.715,50.721s-22.745,50.726-50.715,50.726   c-27.958,0-50.711-22.756-50.711-50.726S271.198,360.692,299.156,360.692z M410.456,291.088c-27.97,0-50.715-22.751-50.715-50.721   s22.751-50.72,50.715-50.72s50.714,22.75,50.714,50.72S438.419,291.088,410.456,291.088z" fill="#FFFFFF"/>
</g>
<g>
</g>
<g>
</g>
<g>
</g>
<g>
</g>
<g>
</g>
<g>
</g>
<g>
</g>
<g>
</g>
<g>
</g>
<g>
</g>
<g>
</g>
<g>
</g>
<g>
</g>
<g>
</g>
<g>
</g>
</svg>
